<svg id="Camada_1" data-name="Camada 1" xmlns="http://www.w3.org/2000/svg" viewBox="0 0 531.84 159.68"><defs><style>.cls-1{fill:#00a8bc;}.cls-2{fill:#f7a521;}</style></defs><path class="cls-1" d="M3.44,97.66a3.23,3.23,0,0,1-2.48-1,3.43,3.43,0,0,1-1-2.41V4.81A3.35,3.35,0,0,1,1,2.34a3.36,3.36,0,0,1,2.48-1H42a51.66,51.66,0,0,1,19.88,3.5A28.85,28.85,0,0,1,75,15.41q4.74,7,4.74,17.74T75,50.62A27.89,27.89,0,0,1,61.83,60.8,54.58,54.58,0,0,1,42,64.1H25.58V94.22a3.29,3.29,0,0,1-1,2.41,3.42,3.42,0,0,1-2.54,1ZM25.17,45.12h16.1q5.91,0,9.42-3t3.51-9.21a13.17,13.17,0,0,0-3-8.81q-3-3.57-9.9-3.57H25.17Z" transform="translate(0)"/><path class="cls-1" d="M132.33,99q-12.66,0-22-4.13A32,32,0,0,1,95.74,82.46Q90.51,74.15,90,61.62q-.13-5.91-.14-11.89T90,37.83Q90.5,25.44,95.81,17A33,33,0,0,1,110.52,4.26,52.46,52.46,0,0,1,132.33,0q12.51,0,21.87,4.26A33.48,33.48,0,0,1,168.91,17q5.37,8.46,5.78,20.84.27,5.91.28,11.9t-.28,11.89q-.41,12.52-5.71,20.84a32.41,32.41,0,0,1-14.65,12.45Q145,99,132.33,99Zm0-19.81a16.51,16.51,0,0,0,11.89-4.4q4.62-4.41,4.89-14c.18-4,.27-7.84.27-11.42s-.09-7.29-.27-11.14a25,25,0,0,0-2.41-10.52,13.67,13.67,0,0,0-5.85-6,18.28,18.28,0,0,0-8.52-1.92,18,18,0,0,0-8.4,1.92,14.12,14.12,0,0,0-5.91,6,24.23,24.23,0,0,0-2.48,10.52c-.09,3.85-.13,7.57-.13,11.14s0,7.38.13,11.42q.42,9.63,5,14A16.38,16.38,0,0,0,132.33,79.23Z" transform="translate(0)"/><path class="cls-1" d="M194.36,97.66a3.24,3.24,0,0,1-2.48-1,3.43,3.43,0,0,1-1-2.41V4.81a3.35,3.35,0,0,1,1-2.47,3.38,3.38,0,0,1,2.48-1h37.42q17.88,0,28.06,8.18T270,32.74q0,9.76-4.68,16.5A29.26,29.26,0,0,1,253,59.42L271.8,93.26a3.39,3.39,0,0,1,.42,1.51,3.07,3.07,0,0,1-2.89,2.89H251a5.09,5.09,0,0,1-3.85-1.3A10.77,10.77,0,0,1,245.39,94L229.71,63.69h-14V94.22a3.29,3.29,0,0,1-1,2.41,3.45,3.45,0,0,1-2.54,1Zm21.32-53.51H231.5q6.47,0,9.7-3.16a11.4,11.4,0,0,0,3.23-8.53,12.16,12.16,0,0,0-3.09-8.66q-3.1-3.3-9.84-3.3H215.68Z" transform="translate(0)"/><path class="cls-1" d="M309.63,97.66a3.21,3.21,0,0,1-2.47-1,3.39,3.39,0,0,1-1-2.41V23H281.71a3.23,3.23,0,0,1-2.48-1,3.43,3.43,0,0,1-1-2.41V4.81a3.35,3.35,0,0,1,1-2.47,3.36,3.36,0,0,1,2.48-1h74a3.36,3.36,0,0,1,2.48,1,3.35,3.35,0,0,1,1,2.47V19.53a3.43,3.43,0,0,1-1,2.41,3.23,3.23,0,0,1-2.48,1H331.23V94.22a3.39,3.39,0,0,1-1,2.41,3.21,3.21,0,0,1-2.47,1Z" transform="translate(0)"/><path class="cls-1" d="M463.83,97.66a3.23,3.23,0,0,1-2.48-1,3.43,3.43,0,0,1-1-2.41V4.81a3.35,3.35,0,0,1,1-2.47,3.36,3.36,0,0,1,2.48-1H482a3.36,3.36,0,0,1,2.48,1,3.35,3.35,0,0,1,1,2.47V76.89H527.1a3.28,3.28,0,0,1,2.48,1,3.61,3.61,0,0,1,1,2.55V94.22a3.43,3.43,0,0,1-1,2.41,3.24,3.24,0,0,1-2.48,1Z" transform="translate(0)"/><path class="cls-2" d="M446.26,93.74,414.07,5.43a5.49,5.49,0,0,0-1.72-2.68,5.27,5.27,0,0,0-3.64-1.17H388.35a5.28,5.28,0,0,0-3.65,1.17A5.56,5.56,0,0,0,383,5.43L350.66,93.74a5.22,5.22,0,0,0-.14,1.24,3.07,3.07,0,0,0,2.89,2.89h16.92a4.36,4.36,0,0,0,3.3-1A5.59,5.59,0,0,0,374.87,95l3.44-9.23L388.61,53l9.92-28.16,19.75,59.94L422.19,95a5.18,5.18,0,0,0,1.3,1.86,4.2,4.2,0,0,0,3.1,1h16.92a2.91,2.91,0,0,0,2.13-.9,2.77,2.77,0,0,0,.62-3.23Z" transform="translate(0)"/><path class="cls-1" d="M1.92,159.19a1,1,0,0,1-.78-.29,1.06,1.06,0,0,1-.29-.78V126.24a1.13,1.13,0,0,1,.29-.83,1.09,1.09,0,0,1,.78-.29H12.29a17.78,17.78,0,0,1,8.08,1.51,8.63,8.63,0,0,1,4.16,4.45,19,19,0,0,1,1.29,7.18c0,1.46.05,2.75.05,3.87s0,2.41-.05,3.87a20.48,20.48,0,0,1-1.31,7.4,8.29,8.29,0,0,1-4.09,4.36,17.83,17.83,0,0,1-7.89,1.43Zm2-2.92h8.37a15.06,15.06,0,0,0,6.16-1,6.34,6.34,0,0,0,3.26-3.36,16.22,16.22,0,0,0,1.05-6.11c0-1,0-1.83,0-2.56V141c0-.72,0-1.56,0-2.53-.07-3.58-.9-6.21-2.49-7.92S15.94,128,12.05,128H3.92Z" transform="translate(0)"/><path class="cls-1" d="M34.88,159.19a1,1,0,0,1-1.07-1.07V126.24a1.09,1.09,0,0,1,.29-.83,1.06,1.06,0,0,1,.78-.29h19a1.13,1.13,0,0,1,.83.29,1.09,1.09,0,0,1,.29.83V127a1,1,0,0,1-.29.78,1.13,1.13,0,0,1-.83.29h-17v12.41H52.79a1.15,1.15,0,0,1,.83.29,1.16,1.16,0,0,1,.29.83v.73a1.06,1.06,0,0,1-.29.78,1.11,1.11,0,0,1-.83.29H36.87v12.9H54.25a1.13,1.13,0,0,1,.83.29,1.16,1.16,0,0,1,.29.83v.73a1.06,1.06,0,0,1-.29.78,1.09,1.09,0,0,1-.83.29Z" transform="translate(0)"/><path class="cls-1" d="M86.72,159.68A13.63,13.63,0,0,1,79.49,158a10.68,10.68,0,0,1-4.16-4.69,17.76,17.76,0,0,1-1.51-6.77c0-1.33,0-2.76,0-4.29s0-3,0-4.38A18,18,0,0,1,75.33,131a10.46,10.46,0,0,1,4.16-4.69,13.72,13.72,0,0,1,7.23-1.71,16,16,0,0,1,5.89,1,11.35,11.35,0,0,1,4,2.56,10.93,10.93,0,0,1,3.14,7,.76.76,0,0,1-.27.7,1.11,1.11,0,0,1-.75.27h-1a1.09,1.09,0,0,1-.68-.22,1.26,1.26,0,0,1-.39-.8q-.93-4.33-3.48-5.94a11.91,11.91,0,0,0-6.45-1.61,9.71,9.71,0,0,0-7,2.51q-2.61,2.5-2.8,8-.15,4,0,8.17.19,5.5,2.8,8a9.71,9.71,0,0,0,7,2.51,11.91,11.91,0,0,0,6.45-1.61q2.55-1.6,3.48-5.94a1.26,1.26,0,0,1,.39-.8,1.09,1.09,0,0,1,.68-.22h1a1.11,1.11,0,0,1,.75.27.77.77,0,0,1,.27.71,11.1,11.1,0,0,1-.85,3.57,10.94,10.94,0,0,1-2.29,3.41,11.21,11.21,0,0,1-4,2.56A15.82,15.82,0,0,1,86.72,159.68Z" transform="translate(0)"/><path class="cls-1" d="M118.41,159.68a15,15,0,0,1-6.86-1.44,9.66,9.66,0,0,1-4.34-4.43,18.16,18.16,0,0,1-1.65-7.57c0-1.46,0-2.82,0-4.08s0-2.63,0-4.09a17,17,0,0,1,1.75-7.52,10.33,10.33,0,0,1,4.46-4.46,15.85,15.85,0,0,1,13.29,0,10.45,10.45,0,0,1,4.47,4.46,16.22,16.22,0,0,1,1.73,7.52c.07,1.46.1,2.82.1,4.09s0,2.62-.1,4.08a17.28,17.28,0,0,1-1.63,7.57,9.74,9.74,0,0,1-4.36,4.43A15,15,0,0,1,118.41,159.68Zm0-2.92a9.67,9.67,0,0,0,6.89-2.53q2.7-2.53,2.9-8.23.09-2.19.09-3.84c0-1.11,0-2.39-.09-3.85a13.77,13.77,0,0,0-1.39-6.18,8,8,0,0,0-3.46-3.48,10.79,10.79,0,0,0-4.94-1.1,10.66,10.66,0,0,0-4.89,1.1,8,8,0,0,0-3.46,3.48,14,14,0,0,0-1.43,6.18c0,1.46,0,2.74,0,3.85s0,2.38,0,3.84q.2,5.7,2.92,8.23A9.66,9.66,0,0,0,118.41,156.76Z" transform="translate(0)"/><path class="cls-1" d="M140.22,159.19a1.1,1.1,0,0,1-.8-.29,1,1,0,0,1-.32-.78V126.24a1,1,0,0,1,.32-.83,1.14,1.14,0,0,1,.8-.29h1.22a1,1,0,0,1,.73.24,1.27,1.27,0,0,1,.29.39l11,21.52,11.1-21.52a3.21,3.21,0,0,1,.31-.39.92.92,0,0,1,.71-.24h1.17a1.16,1.16,0,0,1,.83.29,1.13,1.13,0,0,1,.29.83v31.88a1.06,1.06,0,0,1-.29.78,1.12,1.12,0,0,1-.83.29h-.88a1,1,0,0,1-1.07-1.07V131.74l-9.3,18.3a1.45,1.45,0,0,1-.56.73,1.69,1.69,0,0,1-1,.25H153a1.55,1.55,0,0,1-.92-.25,1.93,1.93,0,0,1-.59-.73l-9.29-18.3v26.38a1,1,0,0,1-1.08,1.07Z" transform="translate(0)"/><path class="cls-1" d="M178.14,159.19a1,1,0,0,1-1.07-1.07V126.24a1.13,1.13,0,0,1,.29-.83,1.09,1.09,0,0,1,.78-.29H190a14.16,14.16,0,0,1,5.91,1.14,8.76,8.76,0,0,1,3.9,3.38,11.78,11.78,0,0,1,0,11.1,8.72,8.72,0,0,1-3.9,3.39,14.16,14.16,0,0,1-5.91,1.14h-9.83v12.85a1,1,0,0,1-.3.78,1.08,1.08,0,0,1-.82.29Zm2-16.84h9.59q4.23,0,6.3-1.85a7.83,7.83,0,0,0,0-10.61Q194,128,189.73,128h-9.59Z" transform="translate(0)"/><path class="cls-1" d="M208.71,159.19a1,1,0,0,1-1.07-1.07V126.24a1.13,1.13,0,0,1,.29-.83,1.09,1.09,0,0,1,.78-.29h11.34a12.71,12.71,0,0,1,8.16,2.43c2,1.63,3,4.09,3,7.4a9.41,9.41,0,0,1-1.95,6.23,9.73,9.73,0,0,1-5.4,3.17l7.84,13.33a1.35,1.35,0,0,1,.14.54.94.94,0,0,1-.29.68.92.92,0,0,1-.68.29h-.59a1.48,1.48,0,0,1-1.16-.41,6,6,0,0,1-.69-.9l-7.74-13.1h-10v13.34a1,1,0,0,1-.3.78,1.08,1.08,0,0,1-.82.29Zm2-17.33h9.1q4.23,0,6.3-1.72a7.53,7.53,0,0,0,0-10.37Q224,128,219.81,128h-9.1Z" transform="translate(0)"/><path class="cls-1" d="M236.36,159.19a1,1,0,0,1-1-1,1.9,1.9,0,0,1,.09-.54l12.32-31.59a1.7,1.7,0,0,1,.51-.73,1.46,1.46,0,0,1,.9-.24h1.66a1.46,1.46,0,0,1,.9.24,1.7,1.7,0,0,1,.51.73l12.31,31.59a1.64,1.64,0,0,1,.1.54.94.94,0,0,1-.29.68.92.92,0,0,1-.68.29h-1a1,1,0,0,1-.73-.26,2.54,2.54,0,0,1-.34-.47l-3-7.78H241.42l-3,7.78a1.07,1.07,0,0,1-.31.47,1.06,1.06,0,0,1-.76.26Zm6.23-11.44h14.9L250,128.57Z" transform="translate(0)"/><path class="cls-1" d="M280.17,159.68a15.81,15.81,0,0,1-6.69-1.27,10.41,10.41,0,0,1-4.21-3.26,7.54,7.54,0,0,1-1.56-4.23.94.94,0,0,1,.29-.68,1,1,0,0,1,.73-.3h1a1,1,0,0,1,.75.3,1.23,1.23,0,0,1,.32.68,5.8,5.8,0,0,0,1.21,2.7,7.68,7.68,0,0,0,3,2.24,12.64,12.64,0,0,0,5.16.9q4.77,0,7-1.73a5.61,5.61,0,0,0,2.19-4.65,4.38,4.38,0,0,0-1.14-3.14,10,10,0,0,0-3.48-2.14c-1.56-.63-3.55-1.34-6-2.12a34.68,34.68,0,0,1-5.69-2.31,7.37,7.37,0,0,1-4.34-7.28,7.81,7.81,0,0,1,1.32-4.45,9,9,0,0,1,3.82-3.14,14.38,14.38,0,0,1,6.11-1.17,14.64,14.64,0,0,1,5,.78,10.64,10.64,0,0,1,3.56,2.07,9.45,9.45,0,0,1,2.14,2.77,7.36,7.36,0,0,1,.78,2.9,1,1,0,0,1-.25.66.92.92,0,0,1-.78.31h-1a1.39,1.39,0,0,1-.61-.19,1,1,0,0,1-.46-.78,5.61,5.61,0,0,0-2.56-4,10,10,0,0,0-5.86-1.58A11.07,11.07,0,0,0,274,129a5.46,5.46,0,0,0-1.27,7.62,8.4,8.4,0,0,0,3.22,2.19c1.46.64,3.34,1.32,5.64,2.07a45.22,45.22,0,0,1,6,2.34,9,9,0,0,1,3.55,2.85,7.45,7.45,0,0,1,1.17,4.35,8.42,8.42,0,0,1-1.48,5,9.37,9.37,0,0,1-4.22,3.17A17.45,17.45,0,0,1,280.17,159.68Z" transform="translate(0)"/><path class="cls-1" d="M313,159.19a1,1,0,0,1-1.07-1.07V126.24a1.13,1.13,0,0,1,.29-.83,1.09,1.09,0,0,1,.78-.29h11.83a14.16,14.16,0,0,1,5.91,1.14,8.76,8.76,0,0,1,3.9,3.38,11.78,11.78,0,0,1,0,11.1,8.72,8.72,0,0,1-3.9,3.39,14.16,14.16,0,0,1-5.91,1.14H315v12.85a1,1,0,0,1-.3.78,1.08,1.08,0,0,1-.82.29Zm2-16.84h9.59q4.23,0,6.3-1.85a7.83,7.83,0,0,0,0-10.61q-2.07-1.84-6.3-1.85H315Z" transform="translate(0)"/><path class="cls-1" d="M354.8,159.68a14.5,14.5,0,0,1-6.75-1.46,9.84,9.84,0,0,1-4.3-4.48,17.23,17.23,0,0,1-1.51-7.74V126.24a1.09,1.09,0,0,1,.29-.83,1.06,1.06,0,0,1,.78-.29h.87a1.13,1.13,0,0,1,.83.29,1.09,1.09,0,0,1,.29.83v19.91c0,3.63.86,6.31,2.56,8a10.54,10.54,0,0,0,13.82,0q2.56-2.58,2.56-8V126.24a1.07,1.07,0,0,1,.32-.83,1.16,1.16,0,0,1,.8-.29h.88a1,1,0,0,1,.77.29,1.1,1.1,0,0,1,.3.83V146a17.53,17.53,0,0,1-1.49,7.74,9.76,9.76,0,0,1-4.26,4.48A14.4,14.4,0,0,1,354.8,159.68Zm-.59-37a.68.68,0,0,1-.78-.77.84.84,0,0,1,.25-.64l3.36-4a2.78,2.78,0,0,1,.73-.68,2.22,2.22,0,0,1,1.07-.19h2.24a.81.81,0,0,1,.92.92.78.78,0,0,1-.24.58l-5.31,4.34a1.69,1.69,0,0,1-.7.41,3.69,3.69,0,0,1-.81.07Z" transform="translate(0)"/><path class="cls-1" d="M377.24,159.19a1,1,0,0,1-1.07-1.07V126.24a1.09,1.09,0,0,1,.29-.83,1.06,1.06,0,0,1,.78-.29h12.7a11.25,11.25,0,0,1,5.58,1.22,7.73,7.73,0,0,1,3.18,3.18,9.14,9.14,0,0,1,1,4.31,8.77,8.77,0,0,1-.66,3.58,7.34,7.34,0,0,1-1.65,2.41,8.48,8.48,0,0,1-2,1.41,9.48,9.48,0,0,1,3.46,3.12,8.75,8.75,0,0,1,1.51,5.2,9.88,9.88,0,0,1-1.15,4.65,9.05,9.05,0,0,1-3.4,3.61,10.54,10.54,0,0,1-5.58,1.38Zm2-19.27h10.08a8.22,8.22,0,0,0,5.48-1.61,5.57,5.57,0,0,0,1.87-4.48,5.15,5.15,0,0,0-1.87-4.33,8.82,8.82,0,0,0-5.48-1.46H379.23Zm0,16.35H389.8a7.68,7.68,0,0,0,5.57-1.9,6.91,6.91,0,0,0,0-9.66,7.75,7.75,0,0,0-5.57-1.87H379.23Z" transform="translate(0)"/><path class="cls-1" d="M409,159.19a1,1,0,0,1-1.08-1.07V126.19a1,1,0,0,1,.3-.78,1.06,1.06,0,0,1,.78-.29H410a1.09,1.09,0,0,1,.78.29,1.06,1.06,0,0,1,.29.78v30.08h16.8a1,1,0,0,1,1.11,1.12v.73a1,1,0,0,1-.29.78,1.08,1.08,0,0,1-.82.29Z" transform="translate(0)"/><path class="cls-1" d="M435.7,159.19a1,1,0,0,1-1.07-1.07V126.19a1.06,1.06,0,0,1,.29-.78,1.09,1.09,0,0,1,.78-.29h.93a1,1,0,0,1,.77.29,1,1,0,0,1,.3.78v31.93a1,1,0,0,1-.3.78,1,1,0,0,1-.77.29Z" transform="translate(0)"/><path class="cls-1" d="M458.38,159.68a13.56,13.56,0,0,1-7.22-1.73,10.64,10.64,0,0,1-4.17-4.69,17.76,17.76,0,0,1-1.5-6.77c0-1.33-.05-2.76-.05-4.29s0-3,.05-4.38A18,18,0,0,1,447,131a10.43,10.43,0,0,1,4.17-4.69,13.66,13.66,0,0,1,7.22-1.71,16.12,16.12,0,0,1,5.9,1,11.3,11.3,0,0,1,4,2.56,10.93,10.93,0,0,1,3.14,7,.74.74,0,0,1-.27.7,1.11,1.11,0,0,1-.75.27h-1a1.07,1.07,0,0,1-.68-.22,1.17,1.17,0,0,1-.39-.8q-.93-4.33-3.48-5.94a12,12,0,0,0-6.46-1.61,9.72,9.72,0,0,0-7,2.51q-2.61,2.5-2.8,8-.15,4,0,8.17.19,5.5,2.8,8a9.72,9.72,0,0,0,7,2.51,12,12,0,0,0,6.46-1.61q2.55-1.6,3.48-5.94a1.17,1.17,0,0,1,.39-.8,1.07,1.07,0,0,1,.68-.22h1a1.11,1.11,0,0,1,.75.27.75.75,0,0,1,.27.71,10.93,10.93,0,0,1-3.14,7,11.17,11.17,0,0,1-4,2.56A15.92,15.92,0,0,1,458.38,159.68Z" transform="translate(0)"/><path class="cls-1" d="M475.81,159.19a.92.92,0,0,1-.68-.29.94.94,0,0,1-.29-.68,1.64,1.64,0,0,1,.1-.54l12.31-31.59a1.7,1.7,0,0,1,.51-.73,1.46,1.46,0,0,1,.9-.24h1.66a1.46,1.46,0,0,1,.9.24,1.7,1.7,0,0,1,.51.73l12.32,31.59a1.9,1.9,0,0,1,.09.54,1,1,0,0,1-1,1h-1a1,1,0,0,1-.73-.26,1.85,1.85,0,0,1-.34-.47l-3-7.78H480.87l-3,7.78a1.22,1.22,0,0,1-.32.47,1.05,1.05,0,0,1-.75.26ZM482,147.75h14.9l-7.45-19.18Z" transform="translate(0)"/><path class="cls-1" d="M519.62,159.68a15.81,15.81,0,0,1-6.69-1.27,10.48,10.48,0,0,1-4.21-3.26,7.69,7.69,0,0,1-1.56-4.23.94.94,0,0,1,.29-.68,1,1,0,0,1,.73-.3h1a1,1,0,0,1,.75.3,1.17,1.17,0,0,1,.32.68,5.72,5.72,0,0,0,1.22,2.7,7.64,7.64,0,0,0,3,2.24,12.64,12.64,0,0,0,5.16.9q4.77,0,7-1.73a5.59,5.59,0,0,0,2.2-4.65,4.38,4.38,0,0,0-1.15-3.14,10,10,0,0,0-3.48-2.14c-1.56-.63-3.55-1.34-6-2.12a34.68,34.68,0,0,1-5.69-2.31,7.37,7.37,0,0,1-4.34-7.28,7.81,7.81,0,0,1,1.32-4.45,9.1,9.1,0,0,1,3.82-3.14,14.38,14.38,0,0,1,6.11-1.17,14.6,14.6,0,0,1,5,.78,10.54,10.54,0,0,1,3.56,2.07,9.45,9.45,0,0,1,2.14,2.77,7,7,0,0,1,.78,2.9,1.07,1.07,0,0,1-.24.66.94.94,0,0,1-.78.31h-1a1.39,1.39,0,0,1-.61-.19,1,1,0,0,1-.46-.78,5.6,5.6,0,0,0-2.55-4,10.08,10.08,0,0,0-5.87-1.58,11.07,11.07,0,0,0-5.89,1.41,5.46,5.46,0,0,0-1.27,7.62,8.48,8.48,0,0,0,3.22,2.19c1.46.64,3.34,1.32,5.64,2.07a45.22,45.22,0,0,1,6,2.34,9,9,0,0,1,3.55,2.85,7.45,7.45,0,0,1,1.17,4.35,8.42,8.42,0,0,1-1.48,5,9.39,9.39,0,0,1-4.21,3.17A17.54,17.54,0,0,1,519.62,159.68Z" transform="translate(0)"/></svg>